<mxfile host="app.diagrams.net" modified="2024-07-11T04:21:47.462Z" agent="Mozilla/5.0 (Windows NT 10.0; Win64; x64) AppleWebKit/537.36 (KHTML, like Gecko) Chrome/126.0.0.0 Safari/537.36" version="24.4.8" etag="q_1sN9IQvJNi0appmF9j" type="github">
  <diagram name="페이지-1" id="pZZVLcrPWXZvWFdkLYnw">
    <mxGraphModel>
      <root>
        <mxCell id="0" />
        <mxCell id="1" parent="0" />
      </root>
    </mxGraphModel>
  </diagram>
</mxfile>
